<svg width="80" height="80" viewBox="0 0 80 80" fill="none" xmlns="http://www.w3.org/2000/svg">
<circle cx="40" cy="40" r="40" fill="#4888FF"/>
<circle cx="40" cy="40" r="35" fill="#4888FF"/>
<path d="M40.5003 59.2917C42.969 59.2984 45.4146 58.8154 47.6954 57.8706C49.9762 56.9258 52.0469 55.5379 53.7877 53.7874C54.108 53.4671 54.2879 53.0326 54.2879 52.5796C54.2879 52.1266 54.108 51.6922 53.7877 51.3718L42.9159 40.5L53.7877 29.6282C54.108 29.3078 54.2879 28.8734 54.2879 28.4204C54.2879 27.9674 54.108 27.5329 53.7877 27.2126C51.6025 25.0273 48.9122 23.4147 45.9549 22.5176C42.9976 21.6205 39.8647 21.4665 36.8338 22.0694C33.8028 22.6722 30.9673 24.0133 28.5784 25.9738C26.1895 27.9343 24.321 30.4537 23.1384 33.3088C21.9558 36.1639 21.4956 39.2667 21.7985 42.3421C22.1015 45.4176 23.1582 48.3709 24.8752 50.9404C26.5921 53.5099 28.9163 55.6163 31.6418 57.073C34.3672 58.5297 37.4099 59.2918 40.5003 59.2917ZM40.5003 25.125C43.9895 25.115 47.3768 26.3009 50.0977 28.4853L39.2925 39.2922C38.9722 39.6126 38.7923 40.047 38.7923 40.5C38.7923 40.953 38.9722 41.3874 39.2925 41.7078L50.0977 52.5147C48.1787 54.047 45.9205 55.0974 43.5122 55.5778C41.104 56.0583 38.6156 55.9549 36.2555 55.2763C33.8954 54.5978 31.7322 53.3637 29.9469 51.6775C28.1616 49.9912 26.8062 47.9019 25.9941 45.5843C25.182 43.2668 24.9369 40.7884 25.2792 38.3566C25.6216 35.9249 26.5414 33.6105 27.9618 31.6072C29.3822 29.6039 31.2618 27.97 33.4432 26.8422C35.6247 25.7144 38.0445 25.1256 40.5003 25.125ZM59.2919 40.5C59.2919 41.1758 59.0916 41.8363 58.7161 42.3982C58.3407 42.9601 57.8071 43.398 57.1828 43.6566C56.5585 43.9152 55.8715 43.9828 55.2087 43.851C54.5459 43.7192 53.9372 43.3938 53.4593 42.9159C52.9815 42.4381 52.6561 41.8293 52.5243 41.1666C52.3924 40.5038 52.4601 39.8168 52.7187 39.1925C52.9773 38.5682 53.4152 38.0346 53.9771 37.6591C54.5389 37.2837 55.1995 37.0833 55.8753 37.0833C56.7814 37.0833 57.6505 37.4433 58.2912 38.0841C58.932 38.7248 59.2919 39.5938 59.2919 40.5ZM33.6669 31.9583C33.6669 31.2826 33.8673 30.622 34.2428 30.0601C34.6182 29.4983 35.1518 29.0603 35.7761 28.8017C36.4004 28.5431 37.0874 28.4755 37.7502 28.6073C38.4129 28.7391 39.0217 29.0646 39.4996 29.5424C39.9774 30.0202 40.3028 30.629 40.4346 31.2918C40.5665 31.9545 40.4988 32.6415 40.2402 33.2658C39.9816 33.8901 39.5437 34.4238 38.9818 34.7992C38.4199 35.1746 37.7594 35.375 37.0836 35.375C36.1775 35.375 35.3084 35.015 34.6677 34.3743C34.0269 33.7335 33.6669 32.8645 33.6669 31.9583Z" fill="white"/>
</svg>
